# Blender v2.90.1 OBJ File: '80sRectangle.blend'
# www.blender.org
mtllib 80sRectangle.mtl
o Cube_Cube.001
v -0.404868 -2.278537 0.211223
v -0.404868 -1.640556 0.337298
v -0.508771 -1.640556 0.211223
v -0.404868 1.640556 0.337298
v -0.404868 2.278537 0.211223
v -0.508771 1.640556 0.211223
v -0.404868 -2.278537 -0.407193
v -0.508771 -1.640556 -0.407193
v -0.404868 -1.640556 -0.533268
v -0.404868 2.278537 -0.407193
v -0.404868 1.640556 -0.533268
v -0.508771 1.640556 -0.407193
v 0.404868 -2.278537 0.211223
v 0.508771 -1.640556 0.211223
v 0.404868 -1.640556 0.337298
v 0.404868 2.278537 0.211223
v 0.404868 1.640556 0.337298
v 0.508771 1.640556 0.211223
v 0.404868 -2.278537 -0.407193
v 0.404868 -1.640556 -0.533268
v 0.508771 -1.640556 -0.407193
v 0.404868 2.278537 -0.407193
v 0.508771 1.640556 -0.407193
v 0.404868 1.640556 -0.533268
vt 0.409999 0.775528
vt 0.590001 0.775528
vt 0.590001 0.974472
vt 0.409999 0.974472
vt 0.409999 0.536205
vt 0.590001 0.536205
vt 0.590001 0.713795
vt 0.409999 0.713795
vt 0.650528 0.536205
vt 0.849472 0.536205
vt 0.849472 0.713795
vt 0.650528 0.713795
vt 0.409999 0.036205
vt 0.590001 0.036205
vt 0.590001 0.213795
vt 0.409999 0.213795
vt 0.409999 0.275528
vt 0.590001 0.275528
vt 0.590001 0.474472
vt 0.409999 0.474472
vt 0.054557 0.932805
vt 0.054557 0.969010
vt 0.029029 0.932805
vt 0.304550 0.974472
vt 0.339549 0.974472
vt 0.304550 1.000000
vt 0.054557 0.927469
vt 0.029029 0.927469
vt 0.054557 0.891264
vt 0.339549 0.942400
vt 0.339549 0.942400
vt 0.304550 0.916872
vt 0.060330 0.932805
vt 0.085858 0.932805
vt 0.060330 0.969010
vt 0.339549 0.945322
vt 0.339549 0.945322
vt 0.304550 0.919794
vt 0.061560 0.925009
vt 0.061560 0.888804
vt 0.087088 0.925009
vt 0.339549 0.942234
vt 0.339549 0.942234
vt 0.304550 0.906029
vt 0.150528 0.536205
vt 0.150528 0.713795
vt 0.125000 0.713795
vt 0.125000 0.536205
vt 0.124549 0.898186
vt 0.304550 0.898186
vt 0.304550 0.934391
vt 0.124549 0.934391
vt 0.625000 0.036205
vt 0.625000 0.213795
vt 0.304550 0.942400
vt 0.124549 0.942400
vt 0.124549 0.880667
vt 0.304550 0.880667
vt 0.349472 0.536205
vt 0.150528 0.500000
vt 0.349472 0.500000
vt 0.625000 0.275528
vt 0.625000 0.474472
vt 0.304550 0.942234
vt 0.124549 0.942234
vt 0.124549 0.880501
vt 0.304550 0.880501
vt 0.349472 0.713795
vt 0.304550 0.945322
vt 0.124549 0.945322
vt 0.124549 0.883589
vt 0.304550 0.883589
vt 0.349472 0.750000
vt 0.150528 0.750000
vt 0.625000 0.775528
vt 0.625000 0.974472
vn 0.0000 0.0000 1.0000
vn 1.0000 0.0000 0.0000
vn 0.0000 1.0000 0.0000
vn -1.0000 0.0000 0.0000
vn 0.0000 0.0000 -1.0000
vn -0.7657 -0.1247 0.6310
vn -0.7657 0.1247 0.6310
vn -0.7657 -0.1247 -0.6310
vn -0.7657 0.1247 -0.6310
vn 0.7657 -0.1247 0.6310
vn 0.7657 0.1247 0.6310
vn 0.7657 -0.1247 -0.6310
vn 0.7657 0.1247 -0.6310
vn -0.9870 -0.1607 0.0000
vn -0.7717 0.0000 0.6360
vn -0.9870 0.1607 0.0000
vn -0.7717 0.0000 -0.6360
vn 0.0000 -0.1939 -0.9810
vn 0.0000 0.1939 -0.9810
vn 0.7717 0.0000 -0.6360
vn 0.9870 -0.1607 0.0000
vn 0.9870 0.1607 0.0000
vn 0.7717 0.0000 0.6360
vn 0.0000 -0.1939 0.9810
vn 0.0000 0.1939 0.9810
vn 0.0000 -1.0000 0.0000
usemtl None
s off
f 15/1/1 17/2/1 4/3/1 2/4/1
f 21/5/2 23/6/2 18/7/2 14/8/2
f 22/9/3 10/10/3 5/11/3 16/12/3
f 3/13/4 6/14/4 12/15/4 8/16/4
f 9/17/5 11/18/5 24/19/5 20/20/5
f 1/21/6 2/22/6 3/23/6
f 4/24/7 5/25/7 6/26/7
f 7/27/8 8/28/8 9/29/8
f 10/30/9 11/31/9 12/32/9
f 13/33/10 14/34/10 15/35/10
f 16/36/11 17/37/11 18/38/11
f 19/39/12 20/40/12 21/41/12
f 22/42/13 23/43/13 24/44/13
f 7/45/14 1/46/14 3/47/14 8/48/14
f 2/49/15 4/50/15 6/51/15 3/52/15
f 5/53/16 10/54/16 12/15/16 6/14/16
f 11/55/17 9/56/17 8/57/17 12/58/17
f 19/59/18 7/45/18 9/60/18 20/61/18
f 10/62/19 22/63/19 24/19/19 11/18/19
f 23/64/20 21/65/20 20/66/20 24/67/20
f 13/68/21 19/59/21 21/5/21 14/8/21
f 22/9/22 16/12/22 18/7/22 23/6/22
f 17/69/23 15/70/23 14/71/23 18/72/23
f 1/46/24 13/68/24 15/73/24 2/74/24
f 16/75/25 5/76/25 4/3/25 17/2/25
f 7/45/26 19/59/26 13/68/26 1/46/26
