# Blender v2.90.1 OBJ File: 'prismStar.blend'
# www.blender.org
mtllib prismStar.mtl
o Cube
v 0.326497 2.392665 -0.248990
v 0.326497 2.392665 0.248990
v -0.326497 2.392665 -0.248990
v -0.326497 2.392665 0.248990
v 0.000000 1.988128 -0.458718
v 0.000000 2.797203 0.458718
v 0.000000 1.988128 0.458718
v 0.000000 2.797203 -0.458718
v -0.444132 1.988128 0.000000
v 0.444132 2.797203 0.000000
v -0.444132 2.797203 0.000000
v 0.444132 1.988128 0.000000
v 0.000000 0.392665 0.000000
v 0.000000 4.392665 0.000000
v 0.000000 2.392665 -2.000000
v 0.000000 2.392665 2.000000
v 2.000000 2.392665 0.000000
v -2.000000 2.392665 0.000000
v -0.404500 2.392665 -0.070537
v -0.038993 2.392665 -0.408749
v 0.038993 2.392665 0.408749
v 0.404500 2.392665 0.070537
v -0.336691 1.988127 0.311547
v 0.336691 2.797203 -0.311547
v 0.336691 1.988127 -0.311547
v -0.336691 2.797203 0.311547
v 0.301641 1.988127 0.325985
v -0.301641 2.797203 -0.325985
v 0.301641 2.797203 0.325985
v -0.301641 1.988127 -0.325985
v 0.000000 0.392665 0.000000
v 0.000000 4.392665 0.000000
v -1.467964 2.392665 1.358338
v 1.467964 2.392665 -1.358338
v -1.358338 2.392665 -1.467964
v 1.358338 2.392665 1.467964
vt 0.750000 0.625000
vt 0.875000 0.625000
vt 0.875000 0.750000
vt 0.750000 0.750000
vt 0.500000 0.875000
vt 0.625000 0.875000
vt 0.500000 1.000000
vt 0.500000 0.125000
vt 0.625000 0.125000
vt 0.500000 0.250000
vt 0.250000 0.625000
vt 0.375000 0.625000
vt 0.375000 0.750000
vt 0.250000 0.750000
vt 0.500000 0.625000
vt 0.625000 0.625000
vt 0.500000 0.750000
vt 0.500000 0.375000
vt 0.625000 0.375000
vt 0.500000 0.500000
vt 0.625000 0.250000
vt 0.125000 0.625000
vt 0.125000 0.750000
vt 0.625000 0.750000
vt 0.625000 0.500000
vt 0.750000 0.500000
vt 0.125000 0.500000
vt 0.250000 0.500000
vt 0.375000 0.500000
vt 0.625000 0.000000
vt 0.875000 0.500000
vt 0.500000 0.000000
vt 0.375000 0.125000
vt 0.375000 0.875000
vt 0.375000 0.375000
vt 0.375000 0.250000
vt 0.375000 1.000000
vt 0.750000 0.625000
vt 0.875000 0.625000
vt 0.875000 0.750000
vt 0.750000 0.750000
vt 0.500000 0.875000
vt 0.625000 0.875000
vt 0.500000 1.000000
vt 0.500000 0.125000
vt 0.625000 0.125000
vt 0.500000 0.250000
vt 0.250000 0.625000
vt 0.375000 0.625000
vt 0.375000 0.750000
vt 0.250000 0.750000
vt 0.500000 0.625000
vt 0.625000 0.625000
vt 0.500000 0.750000
vt 0.500000 0.375000
vt 0.625000 0.375000
vt 0.500000 0.500000
vt 0.625000 0.250000
vt 0.125000 0.625000
vt 0.125000 0.750000
vt 0.625000 0.750000
vt 0.625000 0.500000
vt 0.750000 0.500000
vt 0.125000 0.500000
vt 0.250000 0.500000
vt 0.375000 0.500000
vt 0.625000 0.000000
vt 0.875000 0.500000
vt 0.500000 0.000000
vt 0.375000 0.125000
vt 0.375000 0.875000
vt 0.375000 0.375000
vt 0.375000 0.250000
vt 0.375000 1.000000
vn -0.7040 0.1998 0.6816
vn -0.8060 0.5726 0.1503
vn -0.1281 0.4926 -0.8608
vn 0.7040 -0.1998 0.6816
vn 0.1281 0.4926 0.8608
vn 0.8060 0.5726 -0.1503
vn -0.8060 0.5726 -0.1503
vn -0.7040 -0.1998 0.6816
vn 0.8060 0.5726 0.1503
vn 0.7040 0.1998 0.6816
vn 0.7040 0.1998 -0.6816
vn -0.7040 -0.1998 -0.6816
vn 0.1281 0.4926 -0.8608
vn 0.7040 -0.1998 -0.6816
vn -0.1281 0.4926 0.8608
vn -0.7040 0.1998 -0.6816
vn -0.1281 -0.4926 0.8608
vn 0.1281 -0.4926 -0.8608
vn 0.8060 -0.5726 0.1503
vn -0.8060 -0.5726 -0.1503
vn 0.8060 -0.5726 -0.1503
vn 0.1281 -0.4926 0.8608
vn -0.1281 -0.4926 -0.8608
vn -0.8060 -0.5726 0.1503
vn 0.9784 0.1998 0.0538
vn 0.6577 0.5726 0.4895
vn -0.5448 0.4926 0.6786
vn 0.0222 -0.1998 -0.9796
vn 0.5448 0.4926 -0.6786
vn -0.6577 0.5726 -0.4895
vn 0.4371 0.5726 0.6936
vn 0.9784 -0.1998 0.0538
vn -0.4371 0.5726 -0.6936
vn 0.0222 0.1998 -0.9796
vn -0.9784 0.1998 -0.0538
vn -0.0222 -0.1998 0.9796
vn -0.7188 0.4926 0.4906
vn -0.9784 -0.1998 -0.0538
vn 0.7188 0.4926 -0.4906
vn -0.0222 0.1998 0.9796
vn 0.7188 -0.4926 -0.4906
vn -0.7188 -0.4926 0.4906
vn -0.4371 -0.5726 -0.6936
vn 0.4371 -0.5726 0.6936
vn -0.6577 -0.5726 -0.4895
vn 0.5448 -0.4926 -0.6786
vn -0.5448 -0.4926 0.6786
vn 0.6577 -0.5726 0.4895
usemtl Material
s off
f 14/1/1 11/2/1 4/3/1 6/4/1
f 16/5/2 6/6/2 4/7/2
f 18/8/3 11/9/3 3/10/3
f 13/11/4 12/12/4 2/13/4 7/14/4
f 17/15/5 10/16/5 2/17/5
f 15/18/6 8/19/6 1/20/6
f 3/21/7 8/19/7 15/18/7
f 9/22/8 13/11/8 7/14/8 4/23/8
f 2/24/9 6/6/9 16/5/9
f 10/16/10 14/1/10 6/4/10 2/24/10
f 1/25/11 8/26/11 14/1/11 10/16/11
f 3/27/12 5/28/12 13/11/12 9/22/12
f 1/25/13 10/16/13 17/15/13
f 5/28/14 1/29/14 12/12/14 13/11/14
f 4/30/15 11/9/15 18/8/15
f 8/26/16 3/31/16 11/2/16 14/1/16
f 4/32/17 18/8/17 9/33/17
f 1/20/18 17/15/18 12/12/18
f 2/17/19 16/5/19 7/34/19
f 3/10/20 15/18/20 5/35/20
f 5/35/21 15/18/21 1/29/21
f 12/12/22 17/15/22 2/13/22
f 9/33/23 18/8/23 3/36/23
f 7/34/24 16/5/24 4/37/24
f 32/38/25 29/39/25 22/40/25 24/41/25
f 34/42/26 24/43/26 22/44/26
f 36/45/27 29/46/27 21/47/27
f 31/48/28 30/49/28 20/50/28 25/51/28
f 35/52/29 28/53/29 20/54/29
f 33/55/30 26/56/30 19/57/30
f 21/58/31 26/56/31 33/55/31
f 27/59/32 31/48/32 25/51/32 22/60/32
f 20/61/33 24/43/33 34/42/33
f 28/53/34 32/38/34 24/41/34 20/61/34
f 19/62/35 26/63/35 32/38/35 28/53/35
f 21/64/36 23/65/36 31/48/36 27/59/36
f 19/62/37 28/53/37 35/52/37
f 23/65/38 19/66/38 30/49/38 31/48/38
f 22/67/39 29/46/39 36/45/39
f 26/63/40 21/68/40 29/39/40 32/38/40
f 22/69/41 36/45/41 27/70/41
f 19/57/42 35/52/42 30/49/42
f 20/54/43 34/42/43 25/71/43
f 21/47/44 33/55/44 23/72/44
f 23/72/45 33/55/45 19/66/45
f 30/49/46 35/52/46 20/50/46
f 27/70/47 36/45/47 21/73/47
f 25/71/48 34/42/48 22/74/48
