# Blender v2.90.1 OBJ File: 'retroPyramid.blend'
# www.blender.org
mtllib retroPyramid2.mtl
o Cube
v 0.000000 0.941494 -0.029253
v -0.029253 0.941494 0.000000
v 0.000000 0.941494 0.029253
v 0.029253 0.941494 0.000000
v 0.973296 -1.000000 -0.973296
v 0.958804 -0.976115 -0.988057
v 0.988057 -0.976115 -0.958804
v 0.958804 -0.976115 0.988057
v 0.973296 -1.000000 0.973296
v 0.988057 -0.976115 0.958804
v -0.988057 -0.976115 -0.958804
v -0.958804 -0.976115 -0.988057
v -0.973296 -1.000000 -0.973296
v -0.988057 -0.976115 0.958804
v -0.973296 -1.000000 0.973296
v -0.958804 -0.976115 0.988057
vt 0.642478 0.431212
vt 0.642478 0.861742
vt 0.321580 0.574722
vt 0.999773 0.000228
vt 0.999773 0.357067
vt 0.642933 0.357067
vt 0.642933 0.000227
vt 0.321580 0.287247
vt 0.642478 0.000227
vt 0.642478 0.430757
vt 0.000227 0.287247
vt 0.321126 0.000227
vt 0.321126 0.430757
vt 0.855522 0.777607
vt 0.855522 0.785191
vt 0.847938 0.785191
vt 0.847938 0.777607
vt 0.866543 0.783399
vt 0.860810 0.782572
vt 0.866543 0.777607
vt 0.860810 0.784682
vt 0.866543 0.783854
vt 0.866543 0.789647
vt 0.853671 0.791438
vt 0.847938 0.786473
vt 0.853671 0.785646
vt 0.860355 0.785191
vt 0.855977 0.781399
vt 0.860355 0.777607
vt 0.853583 0.451308
vt 0.853583 0.777152
vt 0.847946 0.774745
vt 0.847938 0.454222
vt 0.859683 0.451308
vt 0.859683 0.777152
vt 0.854046 0.774745
vt 0.854038 0.454222
vt 0.831859 0.881823
vt 0.831860 0.451308
vt 0.830142 0.451308
vt 0.830142 0.881823
vt 0.865783 0.451308
vt 0.865783 0.777152
vt 0.860146 0.774745
vt 0.860138 0.454222
vt 0.871883 0.451308
vt 0.871883 0.777152
vt 0.866246 0.774745
vt 0.866238 0.454222
vt 0.820668 0.881823
vt 0.820669 0.451308
vt 0.818951 0.451308
vt 0.828252 0.881823
vt 0.822325 0.881823
vt 0.822326 0.451308
vt 0.829910 0.451308
vt 0.829910 0.881823
vt 0.823820 0.881823
vt 0.823821 0.451308
vt 0.831404 0.451308
vt 0.822103 0.881823
vt 0.000227 0.718232
vt 0.321125 0.431212
vt 0.321125 0.861742
vn 0.8944 0.4472 0.0000
vn 0.0000 -1.0000 0.0000
vn -0.8944 0.4472 0.0000
vn 0.0000 0.4472 0.8944
vn 0.0000 1.0000 0.0000
vn 0.7071 -0.0080 -0.7071
vn 0.7071 -0.0080 0.7071
vn -0.7071 -0.0080 -0.7071
vn -0.7071 -0.0080 0.7071
vn -0.8507 -0.5257 0.0000
vn 0.0000 -0.5257 -0.8507
vn 0.5774 0.5774 -0.5773
vn 0.0000 -0.5257 0.8507
vn 0.8507 -0.5257 0.0000
vn -0.5774 0.5774 0.5773
vn 0.5774 0.5774 0.5773
vn -0.5774 0.5774 -0.5773
vn 0.0000 0.4472 -0.8944
usemtl Material
s off
f 7/1/1 4/2/1 10/3/1
f 13/4/2 5/5/2 9/6/2 15/7/2
f 14/8/3 2/9/3 11/10/3
f 8/11/4 3/12/4 16/13/4
f 1/14/5 2/15/5 3/16/5 4/17/5
f 5/18/6 6/19/6 7/20/6
f 8/21/7 9/22/7 10/23/7
f 11/24/8 12/25/8 13/26/8
f 14/27/9 15/28/9 16/29/9
f 13/30/10 15/31/10 14/32/10 11/33/10
f 5/34/11 13/35/11 12/36/11 6/37/11
f 4/38/12 7/39/12 6/40/12 1/41/12
f 15/42/13 9/43/13 8/44/13 16/45/13
f 9/46/14 5/47/14 7/48/14 10/49/14
f 16/50/15 3/51/15 2/52/15 14/53/15
f 3/54/16 8/55/16 10/56/16 4/57/16
f 1/58/17 12/59/17 11/60/17 2/61/17
f 12/62/18 1/63/18 6/64/18
