# Blender v2.90.1 OBJ File: 'generalToriiGateblend.blend'
# www.blender.org
mtllib ToriiGate.mtl
o Cube
v 9.470365 12.102357 1.000000
v 9.470365 12.102357 -1.000000
v 9.470365 10.102357 1.000000
v 9.470365 10.102357 -1.000000
v -9.429499 12.102357 1.000000
v -9.429499 12.102357 -1.000000
v -9.429499 10.102357 1.000000
v -9.429499 10.102357 -1.000000
v 4.683394 12.151437 -0.849982
v 4.683394 0.293010 -0.849982
v 4.540359 12.151437 -0.764964
v 4.540359 0.293010 -0.764964
v 4.414988 12.151437 -0.650548
v 4.414988 0.293010 -0.650548
v 4.312098 12.151438 -0.511133
v 4.312098 0.293010 -0.511133
v 4.235643 12.151438 -0.352075
v 4.235643 0.293010 -0.352075
v 4.188563 12.151438 -0.179487
v 4.188563 0.293010 -0.179487
v 4.172666 12.151438 -0.000001
v 4.172666 0.293010 -0.000001
v 4.188563 12.151438 0.179485
v 4.188563 0.293010 0.179485
v 4.235642 12.151438 0.352073
v 4.235642 0.293010 0.352073
v 4.312097 12.151438 0.511131
v 4.312097 0.293010 0.511131
v 4.414987 12.151438 0.650547
v 4.414987 0.293010 0.650547
v 4.540358 12.151438 0.764963
v 4.540358 0.293010 0.764963
v 4.683393 12.151438 0.849981
v 4.683393 0.293010 0.849981
v 4.838594 12.151438 0.902335
v 4.838594 0.293010 0.902335
v 5.000000 12.151438 0.920013
v 5.000000 0.293010 0.920013
v 5.161406 12.151438 0.902335
v 5.161406 0.293010 0.902335
v 5.316607 12.151438 0.849981
v 5.316607 0.293010 0.849981
v 5.459642 12.151438 0.764963
v 5.459642 0.293010 0.764963
v 5.585013 12.151438 0.650547
v 5.585013 0.293010 0.650548
v 5.687903 12.151438 0.511132
v 5.687903 0.293010 0.511132
v 5.764358 12.151438 0.352074
v 5.764358 0.293010 0.352074
v 5.811438 12.151438 0.179486
v 5.811438 0.293010 0.179486
v 5.827334 12.151438 -0.000000
v 5.827334 0.293010 -0.000000
v 5.811438 12.151438 -0.179486
v 5.811438 0.293010 -0.179486
v 5.764358 12.151438 -0.352074
v 5.764358 0.293010 -0.352074
v 5.687903 12.151438 -0.511132
v 5.687903 0.293010 -0.511132
v 5.585013 12.151437 -0.650547
v 5.585013 0.293010 -0.650547
v 5.459642 12.151437 -0.764963
v 5.459642 0.293010 -0.764963
v 5.316607 12.151437 -0.849981
v 5.316607 0.293010 -0.849981
v 5.161406 12.151437 -0.902335
v 5.161406 0.293010 -0.902335
v 5.000000 12.151437 -0.920013
v 5.000000 0.293010 -0.920013
v 4.838596 0.293010 -0.902336
v 4.838596 12.151437 -0.902336
v 9.470365 8.405320 0.506008
v 9.470365 8.405320 -0.506007
v 9.470365 7.855699 0.506008
v 9.470365 7.855699 -0.506007
v -9.470365 8.405320 0.506008
v -9.470365 8.405320 -0.506007
v -9.470365 7.855699 0.506008
v -9.470365 7.855699 -0.506007
v 10.923498 13.223685 1.206659
v 10.923498 13.223685 -1.206658
v 10.923498 11.223685 1.206659
v 10.923498 11.223685 -1.206658
v -10.885216 13.223685 1.206659
v -10.885216 13.223685 -1.206658
v -10.885216 11.223685 1.206659
v -10.885216 11.223685 -1.206658
v -1.000000 8.015567 0.000000
v -1.000000 10.552276 0.267699
v -1.000000 10.552276 -0.267699
v 1.000000 8.015567 0.000000
v 1.000000 10.552276 0.267699
v 1.000000 10.552276 -0.267699
v -5.316606 12.151437 -0.849980
v -5.316606 0.293010 -0.849981
v -5.459641 12.151437 -0.764962
v -5.459641 0.293010 -0.764963
v -5.585012 12.151437 -0.650548
v -5.585012 0.293010 -0.650549
v -5.687902 12.151437 -0.511132
v -5.687902 0.293010 -0.511133
v -5.764357 12.151437 -0.352075
v -5.764357 0.293010 -0.352075
v -5.811437 12.151437 -0.179486
v -5.811437 0.293010 -0.179487
v -5.827334 12.151437 -0.000001
v -5.827334 0.293010 0.000000
v -5.811437 12.151437 0.179484
v -5.811437 0.293010 0.179486
v -5.764357 12.151437 0.352073
v -5.764357 0.293010 0.352074
v -5.687903 12.151437 0.511132
v -5.687903 0.293010 0.511132
v -5.585014 12.151437 0.650548
v -5.585014 0.293010 0.650547
v -5.459642 12.151437 0.764962
v -5.459642 0.293010 0.764964
v -5.316607 12.151437 0.849982
v -5.316607 0.293010 0.849982
v -5.161405 12.151437 0.902335
v -5.161405 0.293010 0.902336
v -5.000000 12.151437 0.920014
v -5.000000 0.293010 0.920014
v -4.838595 12.151437 0.902335
v -4.838595 0.293010 0.902336
v -4.683393 12.151437 0.849982
v -4.683393 0.293010 0.849982
v -4.540358 12.151437 0.764964
v -4.540358 0.293010 0.764964
v -4.414987 12.151437 0.650548
v -4.414987 0.293010 0.650547
v -4.312097 12.151437 0.511132
v -4.312097 0.293010 0.511132
v -4.235642 12.151437 0.352075
v -4.235642 0.293010 0.352074
v -4.188562 12.151437 0.179486
v -4.188562 0.293010 0.179486
v -4.172666 12.151437 0.000001
v -4.172666 0.293010 0.000000
v -4.188562 12.151437 -0.179484
v -4.188562 0.293010 -0.179485
v -4.235642 12.151437 -0.352073
v -4.235642 0.293010 -0.352073
v -4.312097 12.151437 -0.511132
v -4.312097 0.293010 -0.511131
v -4.414987 12.151437 -0.650546
v -4.414987 0.293010 -0.650547
v -4.540358 12.151437 -0.764962
v -4.540358 0.293010 -0.764963
v -4.683393 12.151437 -0.849980
v -4.683393 0.293010 -0.849981
v -4.838595 12.151437 -0.902335
v -4.838595 0.293010 -0.902334
v -5.000000 12.151437 -0.920013
v -5.000000 0.293010 -0.920013
v -5.161404 0.293010 -0.902336
v -5.161404 12.151437 -0.902335
v 10.923498 13.223685 0.000001
v -10.885216 11.223685 0.000000
v 10.923498 11.223685 0.000000
v -10.885216 13.223685 0.000001
v 9.470365 12.102357 0.000000
v -9.429499 10.102357 0.000000
v 9.470365 10.102357 0.000000
v -9.429499 12.102357 0.000000
v -12.885216 14.223686 0.000000
v 12.923499 14.223686 0.000000
v 10.970365 12.102357 0.000000
v -10.929499 12.102357 0.000000
vt 0.775482 0.619621
vt 0.910992 0.619621
vt 0.910992 0.754896
vt 0.775482 0.754896
vt 0.707726 0.754896
vt 0.775482 0.890171
vt 0.707726 0.890171
vt 0.639971 0.890171
vt 0.639971 0.890171
vt 0.504461 0.619621
vt 0.639971 0.619621
vt 0.639971 0.754896
vt 0.504461 0.754896
vt 0.707726 0.619621
vt 0.639971 0.619621
vt 0.707726 0.484345
vt 0.775482 0.484345
vt 0.413387 0.685744
vt 0.413387 0.970720
vt 0.401344 0.970720
vt 0.401344 0.685744
vt 0.401344 0.685744
vt 0.401344 0.970720
vt 0.389301 0.970720
vt 0.389301 0.685744
vt 0.389301 0.685744
vt 0.389301 0.970720
vt 0.377259 0.970720
vt 0.377259 0.685744
vt 0.377259 0.685744
vt 0.377259 0.970720
vt 0.365216 0.970720
vt 0.365216 0.685744
vt 0.365216 0.685744
vt 0.365216 0.970720
vt 0.353173 0.970720
vt 0.353173 0.685744
vt 0.353173 0.685744
vt 0.353173 0.970720
vt 0.341130 0.970720
vt 0.341130 0.685744
vt 0.341130 0.685744
vt 0.341130 0.970720
vt 0.329088 0.970720
vt 0.329088 0.685744
vt 0.329088 0.685744
vt 0.329088 0.970720
vt 0.317045 0.970720
vt 0.317045 0.685744
vt 0.317045 0.685744
vt 0.317045 0.970720
vt 0.305002 0.970720
vt 0.305002 0.685744
vt 0.305002 0.685744
vt 0.305002 0.970720
vt 0.292960 0.970720
vt 0.292960 0.685744
vt 0.292960 0.685744
vt 0.292960 0.970720
vt 0.280917 0.970720
vt 0.280917 0.685744
vt 0.280917 0.685744
vt 0.280917 0.970720
vt 0.268874 0.970720
vt 0.268874 0.685744
vt 0.256831 0.970720
vt 0.256831 0.685744
vt 0.244789 0.970720
vt 0.244789 0.685744
vt 0.232746 0.970720
vt 0.232746 0.685744
vt 0.220703 0.970720
vt 0.220703 0.685744
vt 0.208660 0.970720
vt 0.208660 0.685744
vt 0.196618 0.970720
vt 0.196618 0.685744
vt 0.184575 0.970720
vt 0.184575 0.685744
vt 0.172532 0.970720
vt 0.172532 0.685744
vt 0.160490 0.970720
vt 0.160490 0.685744
vt 0.148447 0.970720
vt 0.148447 0.685744
vt 0.136404 0.970720
vt 0.136404 0.685744
vt 0.124361 0.970720
vt 0.124361 0.685744
vt 0.112319 0.970720
vt 0.112319 0.685744
vt 0.100276 0.970720
vt 0.100276 0.685744
vt 0.088233 0.970720
vt 0.088233 0.685744
vt 0.076191 0.970720
vt 0.076191 0.685744
vt 0.064148 0.970720
vt 0.064148 0.685744
vt 0.052105 0.970720
vt 0.052105 0.685744
vt 0.407756 0.516570
vt 0.402493 0.490910
vt 0.393946 0.467261
vt 0.382444 0.446532
vt 0.368429 0.429521
vt 0.352439 0.416880
vt 0.335088 0.409096
vt 0.317045 0.406468
vt 0.299001 0.409096
vt 0.281651 0.416880
vt 0.265661 0.429521
vt 0.251646 0.446532
vt 0.240144 0.467261
vt 0.231597 0.490910
vt 0.226334 0.516570
vt 0.224557 0.543256
vt 0.226334 0.569942
vt 0.231597 0.595603
vt 0.240144 0.619252
vt 0.251646 0.639980
vt 0.265661 0.656991
vt 0.281651 0.669632
vt 0.299002 0.677416
vt 0.317045 0.680044
vt 0.335088 0.677416
vt 0.352439 0.669632
vt 0.368429 0.656991
vt 0.382444 0.639980
vt 0.393946 0.619252
vt 0.402493 0.595603
vt 0.407756 0.569942
vt 0.409533 0.543256
vt 0.040062 0.970720
vt 0.040062 0.685744
vt 0.028020 0.970720
vt 0.028020 0.685744
vt 0.209809 0.490910
vt 0.201262 0.467261
vt 0.189760 0.446532
vt 0.175745 0.429521
vt 0.159755 0.416880
vt 0.142405 0.409096
vt 0.124361 0.406468
vt 0.106318 0.409096
vt 0.088968 0.416880
vt 0.072978 0.429521
vt 0.058963 0.446532
vt 0.047460 0.467261
vt 0.038914 0.490910
vt 0.033651 0.516570
vt 0.031873 0.543256
vt 0.033651 0.569942
vt 0.038914 0.595603
vt 0.047460 0.619252
vt 0.058963 0.639980
vt 0.072978 0.656991
vt 0.088968 0.669632
vt 0.106318 0.677416
vt 0.124361 0.680044
vt 0.142405 0.677416
vt 0.159755 0.669632
vt 0.175745 0.656991
vt 0.189760 0.639980
vt 0.201262 0.619252
vt 0.209809 0.595603
vt 0.215072 0.569942
vt 0.216849 0.543256
vt 0.215072 0.516570
vt 0.491761 0.331029
vt 0.555893 0.331029
vt 0.555893 0.375516
vt 0.491761 0.375516
vt 0.427629 0.375516
vt 0.491761 0.420003
vt 0.427629 0.420003
vt 0.427629 0.242054
vt 0.491761 0.242054
vt 0.491761 0.286541
vt 0.427629 0.286541
vt 0.363496 0.331029
vt 0.427629 0.331029
vt 0.363496 0.375516
vt 0.781035 0.196325
vt 0.912149 0.196325
vt 0.912149 0.306981
vt 0.781035 0.306981
vt 0.715477 0.306981
vt 0.781035 0.417637
vt 0.715477 0.417637
vt 0.912149 0.196325
vt 0.518805 0.196325
vt 0.649920 0.196325
vt 0.649920 0.306981
vt 0.518805 0.306981
vt 0.715477 0.085669
vt 0.781035 0.085669
vt 0.715477 0.196325
vt 0.071398 0.029419
vt 0.205078 0.029419
vt 0.205078 0.104553
vt 0.071398 0.104553
vt 0.205078 0.179688
vt 0.071398 0.179688
vt 0.205078 0.254822
vt 0.071398 0.254822
vt 0.205078 0.329956
vt 0.071398 0.329956
vt 0.338758 0.179688
vt 0.338758 0.254822
vt 0.413387 0.685744
vt 0.413387 0.970720
vt 0.401344 0.970720
vt 0.401344 0.685744
vt 0.401344 0.685744
vt 0.401344 0.970720
vt 0.389301 0.970720
vt 0.389301 0.685744
vt 0.389301 0.685744
vt 0.389301 0.970720
vt 0.377259 0.970720
vt 0.377259 0.685744
vt 0.377259 0.685744
vt 0.377259 0.970720
vt 0.365216 0.970720
vt 0.365216 0.685744
vt 0.365216 0.685744
vt 0.365216 0.970720
vt 0.353173 0.970720
vt 0.353173 0.685744
vt 0.353173 0.685744
vt 0.353173 0.970720
vt 0.341130 0.970720
vt 0.341130 0.685744
vt 0.341130 0.685744
vt 0.341130 0.970720
vt 0.329088 0.970720
vt 0.329088 0.685744
vt 0.329088 0.685744
vt 0.329088 0.970720
vt 0.317045 0.970720
vt 0.317045 0.685744
vt 0.317045 0.685744
vt 0.317045 0.970720
vt 0.305002 0.970720
vt 0.305002 0.685744
vt 0.305002 0.685744
vt 0.305002 0.970720
vt 0.292960 0.970720
vt 0.292960 0.685744
vt 0.292960 0.685744
vt 0.292960 0.970720
vt 0.280917 0.970720
vt 0.280917 0.685744
vt 0.280917 0.685744
vt 0.280917 0.970720
vt 0.268874 0.970720
vt 0.268874 0.685744
vt 0.256831 0.970720
vt 0.256831 0.685744
vt 0.244789 0.970720
vt 0.244789 0.685744
vt 0.232746 0.970720
vt 0.232746 0.685744
vt 0.220703 0.970720
vt 0.220703 0.685744
vt 0.208660 0.970720
vt 0.208660 0.685744
vt 0.196618 0.970720
vt 0.196618 0.685744
vt 0.184575 0.970720
vt 0.184575 0.685744
vt 0.172532 0.970720
vt 0.172532 0.685744
vt 0.160490 0.970720
vt 0.160490 0.685744
vt 0.148447 0.970720
vt 0.148447 0.685744
vt 0.136404 0.970720
vt 0.136404 0.685744
vt 0.124361 0.970720
vt 0.124361 0.685744
vt 0.112319 0.970720
vt 0.112319 0.685744
vt 0.100276 0.970720
vt 0.100276 0.685744
vt 0.088233 0.970720
vt 0.088233 0.685744
vt 0.076191 0.970720
vt 0.076191 0.685744
vt 0.064148 0.970720
vt 0.064148 0.685744
vt 0.052105 0.970720
vt 0.052105 0.685744
vt 0.407756 0.516570
vt 0.402493 0.490910
vt 0.393946 0.467261
vt 0.382444 0.446532
vt 0.368429 0.429521
vt 0.352439 0.416880
vt 0.335088 0.409096
vt 0.317045 0.406468
vt 0.299001 0.409096
vt 0.281651 0.416880
vt 0.265661 0.429521
vt 0.251646 0.446532
vt 0.240144 0.467261
vt 0.231597 0.490910
vt 0.226334 0.516570
vt 0.224557 0.543256
vt 0.226334 0.569942
vt 0.231597 0.595603
vt 0.240144 0.619252
vt 0.251646 0.639980
vt 0.265661 0.656991
vt 0.281651 0.669632
vt 0.299002 0.677416
vt 0.317045 0.680044
vt 0.335088 0.677416
vt 0.352439 0.669632
vt 0.368429 0.656991
vt 0.382444 0.639980
vt 0.393946 0.619252
vt 0.402493 0.595603
vt 0.407756 0.569942
vt 0.409533 0.543256
vt 0.040062 0.970720
vt 0.040062 0.685744
vt 0.028020 0.970720
vt 0.028020 0.685744
vt 0.209809 0.490910
vt 0.215072 0.516570
vt 0.216849 0.543256
vt 0.215072 0.569942
vt 0.209809 0.595603
vt 0.201262 0.619252
vt 0.189760 0.639980
vt 0.175745 0.656991
vt 0.159755 0.669632
vt 0.142405 0.677416
vt 0.124361 0.680044
vt 0.106318 0.677416
vt 0.088968 0.669632
vt 0.072978 0.656991
vt 0.058963 0.639980
vt 0.047460 0.619252
vt 0.038914 0.595603
vt 0.033651 0.569942
vt 0.031873 0.543256
vt 0.033651 0.516570
vt 0.038914 0.490910
vt 0.047460 0.467261
vt 0.058963 0.446532
vt 0.072978 0.429521
vt 0.088968 0.416880
vt 0.106318 0.409096
vt 0.124361 0.406468
vt 0.142405 0.409096
vt 0.159755 0.416880
vt 0.175745 0.429521
vt 0.189760 0.446532
vt 0.201262 0.467261
vt 0.649920 0.085669
vt 0.518805 0.306981
vt 0.649920 0.417637
vt 0.639971 0.484345
vt 0.707726 0.754896
vt 0.775482 0.484345
vt 0.000000 0.000000
vt 0.000000 0.000000
vt 0.000000 0.000000
vt 0.649920 0.085669
vt 0.781035 0.417637
vt 0.715477 0.085669
vt 0.715477 0.417637
vt 0.775482 0.619621
vt 0.649920 0.196325
vt 0.715477 0.306981
vt 0.781035 0.196325
vt 0.781035 0.306981
vt 0.649920 0.306981
vt 0.715477 0.196325
vt 0.639971 0.754896
vt 0.910992 0.754896
vt 0.504461 0.619621
vt 0.775482 0.754896
vt 0.707726 0.619621
vt 0.707726 0.484345
vt 0.707726 0.890171
vn 0.0000 -0.0000 1.0000
vn 0.0000 -1.0000 0.0000
vn -0.8000 -0.6000 0.0000
vn 0.0000 0.0000 -1.0000
vn 0.0000 1.0000 0.0000
vn 0.9013 0.0000 0.4332
vn 0.9647 0.0000 0.2632
vn 0.9961 0.0000 0.0882
vn 0.9961 -0.0000 -0.0882
vn 0.9647 0.0000 -0.2632
vn 0.9013 0.0000 -0.4332
vn 0.8046 0.0000 -0.5938
vn 0.6741 0.0000 -0.7386
vn 0.5109 0.0000 -0.8596
vn 0.3196 -0.0000 -0.9475
vn 0.1089 0.0000 -0.9941
vn 0.8046 0.0000 0.5938
vn 0.6741 0.0000 0.7386
vn 0.5109 0.0000 0.8596
vn 0.3196 0.0000 0.9475
vn 0.1089 -0.0000 0.9941
vn -0.1089 -0.0000 0.9941
vn -0.3196 0.0000 0.9475
vn -0.5109 0.0000 0.8596
vn -0.6741 0.0000 0.7386
vn -0.8046 0.0000 0.5938
vn -0.9013 -0.0000 0.4332
vn -0.9648 -0.0000 0.2632
vn -0.9961 -0.0000 0.0882
vn -0.9961 0.0000 -0.0882
vn -0.9647 0.0000 -0.2632
vn -0.9013 0.0000 -0.4332
vn -0.8046 0.0000 -0.5938
vn -0.6741 -0.0000 -0.7386
vn -0.5109 0.0000 -0.8596
vn -0.3196 0.0000 -0.9475
vn -0.1089 0.0000 -0.9941
vn -1.0000 0.0000 0.0000
vn 1.0000 0.0000 0.0000
vn -0.5166 0.0000 0.8562
vn 0.0000 -0.1049 -0.9945
vn 0.0000 -0.1049 0.9945
vn -0.9647 0.0000 0.2632
vn -0.5166 0.0000 -0.8562
vn 0.8000 -0.6000 0.0000
vn 0.4472 0.8944 0.0000
vn -0.8321 -0.5547 0.0000
vn 0.5547 0.0000 0.8321
vn 0.5166 0.0000 -0.8562
vn 0.8321 -0.5547 0.0000
vn -0.4472 0.8944 0.0000
vn 0.5166 0.0000 0.8562
vn 0.5547 -0.0000 -0.8321
vn -0.5547 0.0000 0.8321
vn -0.5547 -0.0000 -0.8321
usemtl Material
s off
f 1/1/1 5/2/1 7/3/1 3/4/1
f 165/5/2 3/4/2 7/6/2 164/7/2
f 8/8/3 164/7/3 170/9/3
f 6/10/4 2/11/4 4/12/4 8/13/4
f 2/11/5 163/14/5 169/15/5
f 166/16/5 5/17/5 1/1/5 163/14/5
f 50/18/6 49/19/6 47/20/6 48/21/6
f 52/22/7 51/23/7 49/24/7 50/25/7
f 54/26/8 53/27/8 51/28/8 52/29/8
f 56/30/9 55/31/9 53/32/9 54/33/9
f 58/34/10 57/35/10 55/36/10 56/37/10
f 60/38/11 59/39/11 57/40/11 58/41/11
f 62/42/12 61/43/12 59/44/12 60/45/12
f 64/46/13 63/47/13 61/48/13 62/49/13
f 66/50/14 65/51/14 63/52/14 64/53/14
f 68/54/15 67/55/15 65/56/15 66/57/15
f 70/58/16 69/59/16 67/60/16 68/61/16
f 48/62/17 47/63/17 45/64/17 46/65/17
f 46/65/18 45/64/18 43/66/18 44/67/18
f 44/67/19 43/66/19 41/68/19 42/69/19
f 42/69/20 41/68/20 39/70/20 40/71/20
f 40/71/21 39/70/21 37/72/21 38/73/21
f 38/73/22 37/72/22 35/74/22 36/75/22
f 36/75/23 35/74/23 33/76/23 34/77/23
f 34/77/24 33/76/24 31/78/24 32/79/24
f 32/79/25 31/78/25 29/80/25 30/81/25
f 30/81/26 29/80/26 27/82/26 28/83/26
f 28/83/27 27/82/27 25/84/27 26/85/27
f 26/85/28 25/84/28 23/86/28 24/87/28
f 24/87/29 23/86/29 21/88/29 22/89/29
f 22/89/30 21/88/30 19/90/30 20/91/30
f 20/91/31 19/90/31 17/92/31 18/93/31
f 18/93/32 17/92/32 15/94/32 16/95/32
f 16/95/33 15/94/33 13/96/33 14/97/33
f 14/97/34 13/96/34 11/98/34 12/99/34
f 12/99/35 11/98/35 9/100/35 10/101/35
f 52/102/2 50/103/2 48/104/2 46/105/2 44/106/2 42/107/2 40/108/2 38/109/2 36/110/2 34/111/2 32/112/2 30/113/2 28/114/2 26/115/2 24/116/2 22/117/2 20/118/2 18/119/2 16/120/2 14/121/2 12/122/2 10/123/2 71/124/2 70/125/2 68/126/2 66/127/2 64/128/2 62/129/2 60/130/2 58/131/2 56/132/2 54/133/2
f 10/101/36 9/100/36 72/134/36 71/135/36
f 71/135/37 72/134/37 69/136/37 70/137/37
f 49/138/2 47/139/2 45/140/2 43/141/2 41/142/2 39/143/2 37/144/2 35/145/2 33/146/2 31/147/2 29/148/2 27/149/2 25/150/2 23/151/2 21/152/2 19/153/2 17/154/2 15/155/2 13/156/2 11/157/2 9/158/2 72/159/2 69/160/2 67/161/2 65/162/2 63/163/2 61/164/2 59/165/2 57/166/2 55/167/2 53/168/2 51/169/2
f 73/170/1 77/171/1 79/172/1 75/173/1
f 76/174/2 75/173/2 79/175/2 80/176/2
f 80/177/38 79/178/38 77/179/38 78/180/38
f 78/181/4 74/182/4 76/174/4 80/183/4
f 74/182/39 73/170/39 75/173/39 76/174/39
f 78/180/5 77/179/5 73/170/5 74/182/5
f 81/184/1 85/185/1 87/186/1 83/187/1
f 161/188/2 83/187/2 87/189/2 160/190/2
f 85/185/40 167/191/40 87/186/40
f 86/192/4 82/193/4 84/194/4 88/195/4
f 162/196/5 85/197/5 81/184/5 159/198/5
f 89/199/38 90/200/38 91/201/38
f 89/202/41 91/201/41 94/203/41 92/204/41
f 92/204/39 94/203/39 93/205/39
f 92/206/42 93/205/42 90/207/42 89/208/42
f 94/203/5 91/209/5 90/210/5 93/205/5
f 136/211/6 135/212/6 133/213/6 134/214/6
f 138/215/7 137/216/7 135/217/7 136/218/7
f 140/219/8 139/220/8 137/221/8 138/222/8
f 142/223/9 141/224/9 139/225/9 140/226/9
f 144/227/10 143/228/10 141/229/10 142/230/10
f 146/231/11 145/232/11 143/233/11 144/234/11
f 148/235/12 147/236/12 145/237/12 146/238/12
f 150/239/13 149/240/13 147/241/13 148/242/13
f 152/243/14 151/244/14 149/245/14 150/246/14
f 154/247/15 153/248/15 151/249/15 152/250/15
f 156/251/16 155/252/16 153/253/16 154/254/16
f 134/255/17 133/256/17 131/257/17 132/258/17
f 132/258/18 131/257/18 129/259/18 130/260/18
f 130/260/19 129/259/19 127/261/19 128/262/19
f 128/262/20 127/261/20 125/263/20 126/264/20
f 126/264/21 125/263/21 123/265/21 124/266/21
f 124/266/22 123/265/22 121/267/22 122/268/22
f 122/268/23 121/267/23 119/269/23 120/270/23
f 120/270/24 119/269/24 117/271/24 118/272/24
f 118/272/25 117/271/25 115/273/25 116/274/25
f 116/274/26 115/273/26 113/275/26 114/276/26
f 114/276/27 113/275/27 111/277/27 112/278/27
f 112/278/43 111/277/43 109/279/43 110/280/43
f 110/280/29 109/279/29 107/281/29 108/282/29
f 108/282/30 107/281/30 105/283/30 106/284/30
f 106/284/31 105/283/31 103/285/31 104/286/31
f 104/286/32 103/285/32 101/287/32 102/288/32
f 102/288/33 101/287/33 99/289/33 100/290/33
f 100/290/34 99/289/34 97/291/34 98/292/34
f 98/292/35 97/291/35 95/293/35 96/294/35
f 138/295/2 136/296/2 134/297/2 132/298/2 130/299/2 128/300/2 126/301/2 124/302/2 122/303/2 120/304/2 118/305/2 116/306/2 114/307/2 112/308/2 110/309/2 108/310/2 106/311/2 104/312/2 102/313/2 100/314/2 98/315/2 96/316/2 157/317/2 156/318/2 154/319/2 152/320/2 150/321/2 148/322/2 146/323/2 144/324/2 142/325/2 140/326/2
f 96/294/36 95/293/36 158/327/36 157/328/36
f 157/328/37 158/327/37 155/329/37 156/330/37
f 135/331/5 137/332/5 139/333/5 141/334/5 143/335/5 145/336/5 147/337/5 149/338/5 151/339/5 153/340/5 155/341/5 158/342/5 95/343/5 97/344/5 99/345/5 101/346/5 103/347/5 105/348/5 107/349/5 109/350/5 111/351/5 113/352/5 115/353/5 117/354/5 119/355/5 121/356/5 123/357/5 125/358/5 127/359/5 129/360/5 131/361/5 133/362/5
f 86/363/5 162/196/5 159/198/5 82/193/5
f 88/195/44 167/364/44 86/192/44
f 84/194/2 161/188/2 160/190/2 88/365/2
f 6/366/5 166/16/5 163/14/5 2/11/5
f 165/5/45 4/12/45 169/367/45
f 5/17/5 166/16/5 170/368/5
f 4/12/2 165/5/2 164/7/2 8/8/2
f 159/369/1 161/370/1 168/371/1
f 86/363/46 167/372/46 162/196/46
f 87/189/47 167/373/47 160/190/47
f 162/196/46 167/374/46 85/197/46
f 160/190/47 167/375/47 88/365/47
f 1/1/48 3/4/48 169/376/48
f 82/193/49 168/377/49 84/194/49
f 161/188/50 168/378/50 83/187/50
f 81/184/51 168/379/51 159/198/51
f 83/187/52 168/380/52 81/184/52
f 84/194/50 168/381/50 161/188/50
f 159/198/51 168/382/51 82/193/51
f 4/12/53 2/11/53 169/383/53
f 7/3/54 5/2/54 170/384/54
f 6/10/55 8/13/55 170/385/55
f 3/4/45 165/5/45 169/386/45
f 163/14/5 1/1/5 169/387/5
f 166/16/5 6/366/5 170/388/5
f 164/7/3 7/6/3 170/389/3
